HIERARCHY
ROOT Hips
{
	OFFSET 0.00000 0.00000 0.00000
	CHANNELS 6 Xposition Yposition Zposition Zrotation Yrotation Xrotation 
	JOINT LHipJoint
	{
		OFFSET 0 0 0
		CHANNELS 3 Zrotation Yrotation Xrotation
		JOINT LeftHip
		{
			OFFSET 1.85742 -1.74412 1.01653
			CHANNELS 3 Zrotation Yrotation Xrotation
			JOINT LeftKnee
			{
				OFFSET 2.54803 -7.00067 0.00000
				CHANNELS 3 Zrotation Yrotation Xrotation
				JOINT LeftAnkle
				{
					OFFSET 2.51202 -6.90173 0.00000
					CHANNELS 3 Zrotation Yrotation Xrotation
					JOINT LeftToe
					{
						OFFSET 0.17547 -0.48209 1.64281
						CHANNELS 3 Zrotation Yrotation Xrotation
						End Site
						{
							OFFSET 0.00000 -0.00000 0.86587
						}
					}
				}
			}
		}
	}
	JOINT RHipJoint
	{
		OFFSET 0 0 0
		CHANNELS 3 Zrotation Yrotation Xrotation
		JOINT RightHip
		{
			OFFSET -1.95533 -1.74413 1.01654
			CHANNELS 3 Zrotation Yrotation Xrotation
			JOINT RightKnee
			{
				OFFSET -2.49465 -6.85400 0.00000
				CHANNELS 3 Zrotation Yrotation Xrotation
				JOINT RightAnkle
				{
					OFFSET -2.54783 -7.00010 0.00000
					CHANNELS 3 Zrotation Yrotation Xrotation
					JOINT RightToe
					{
						OFFSET -0.18513 -0.50864 1.69288
						CHANNELS 3 Zrotation Yrotation Xrotation
						End Site
						{
							OFFSET -0.00000 -0.00000 0.89242
						}
					}
				}
			}
		}
	}
	JOINT lowerback
	{
		OFFSET 0 0 0
		CHANNELS 3 Zrotation Yrotation Xrotation
		JOINT Chest
		{
			OFFSET 0.02173 2.16290 -0.15998
			CHANNELS 3 Zrotation Yrotation Xrotation
			JOINT Chest2
			{
				OFFSET 0.00940 2.17323 -0.00467
				CHANNELS 3 Zrotation Yrotation Xrotation
				JOINT lowerneck
				{
					OFFSET 0 0 0
					CHANNELS 3 Zrotation Yrotation Xrotation
					JOINT Neck
					{
						OFFSET 0.01475 1.85823 0.31113
						CHANNELS 3 Zrotation Yrotation Xrotation
						JOINT Head
						{
							OFFSET 0.01902 1.88783 -0.37187
							CHANNELS 3 Zrotation Yrotation Xrotation
							End Site
							{
								OFFSET 0.00489 1.93211 -0.16169
							}
						}
					}
				}
				JOINT LeftCollar
				{
					OFFSET 0 0 0
					CHANNELS 3 Zrotation Yrotation Xrotation
					JOINT LeftShoulder
					{
						OFFSET 3.34199 1.32384 -0.07862
CHANNELS 3 Zrotation Xrotation Yrotation
						JOINT LeftElbow
						{
OFFSET 0 -5.279500 0.000000
CHANNELS 3 Zrotation Xrotation Yrotation
							JOINT LeftWrist
							{
OFFSET 0 -3.535040 0.000000
CHANNELS 3 Zrotation Xrotation Yrotation
								JOINT lhand
								{
									OFFSET 0 0 0
CHANNELS 3 Zrotation Xrotation Yrotation
									JOINT LFingers
									{
OFFSET 0 -0.667950 0.000000
CHANNELS 3 Zrotation Xrotation Yrotation
										End Site
										{
OFFSET 0 -0.538520 0.000000
										}
									}
								}
								JOINT LThumb
								{
OFFSET 0 0.000000 0.000000
CHANNELS 3 Zrotation Xrotation Yrotation
									End Site
									{
OFFSET 0 -0.546740 0.546740
									}
								}
							}
						}
					}
				}
				JOINT RightCollar
				{
					OFFSET 0 0 0
					CHANNELS 3 Zrotation Yrotation Xrotation
					JOINT RightShoulder
					{
						OFFSET -3.16149 1.45719 -0.50507
CHANNELS 3 Zrotation Xrotation Yrotation
						JOINT RightElbow
						{
OFFSET 0 -5.250350 0.000000
CHANNELS 3 Zrotation Xrotation Yrotation
							JOINT RightWrist
							{
OFFSET 0 -3.588840 0.000000
CHANNELS 3 Zrotation Xrotation Yrotation
								JOINT rhand
								{
									OFFSET 0 0 0
CHANNELS 3 Zrotation Xrotation Yrotation
									JOINT RFingers
									{
OFFSET 0 -0.779240 0.000000
CHANNELS 3 Zrotation Xrotation Yrotation
										End Site
										{
OFFSET 0 -0.628240 0.000000
										}
									}
								}
								JOINT RThumb
								{
OFFSET 0 0.000000 0.000000
CHANNELS 3 Zrotation Xrotation Yrotation
									End Site
									{
OFFSET 0 -0.637830 0.637830
									}
								}
							}
						}
					}
				}
			}
		}
	}
}
MOTION
Frames: 5
Frame Time: .0083333
-4.5593 17.7552 -2.0353 -16.3191 79.2412 -9.2169 0.0000 0.0000 0.0000 -13.5508 -21.7532 -4.8964 1.1924 6.9290 19.5053 -0.0457 14.8486 -20.5896 2.3681 -9.5940 -27.6717 0.0000 0.0000 0.0000 19.5662 0.9355 -0.9144 0.0000 0.0000 -0.0000 0.9833 -18.6995 -14.8489 -1.4487 -7.6084 21.5307 0.2389 0.2318 2.7639 1.1878 0.3821 -2.5118 1.0661 0.2090 -4.1444 -0.0162 -1.3516 -24.1896 1.0022 -2.0744 25.8367 0.0351 -0.7109 12.6300 -0.0000 -0.0000 0.0000 3.2932 12.1577 -23.3742 13.3737 -21.8323 2.5906 38.5239 5.5956 -53.081 0.0 0.0 0.0 -7.1250 0.0 0.0 -82.2375 86.835 79.0852 -0.0000 -0.0000 0.0000 -7.5244 8.8342 14.4978 -11.3283 -18.7897 -1.8803 -15.6871 5.1168 -19.0149 0.0 0.0 0.0 7.1250 0.0 -0.0 8.1327 10.4399 6.5929
-4.5555 17.7549 -2.0369 -16.5258 79.2555 -9.4883 0.0000 0.0000 0.0000 -13.5112 -21.4261 -4.9721 1.1973 6.9429 19.5462 -0.0038 14.4679 -20.5075 2.3300 -9.5221 -27.4425 0.0000 0.0000 0.0000 19.5930 0.8862 -0.8409 0.0000 0.0000 -0.0000 0.9744 -18.6779 -14.9683 -1.5301 -7.8099 22.1381 0.1901 0.2307 2.8680 1.2049 0.3800 -2.5182 1.1109 0.2097 -4.2105 -0.1226 -1.4017 -24.2599 1.0631 -2.1224 26.0248 0.0675 -0.7305 12.7221 -0.0000 0.0000 0.0000 3.2515 12.1045 -23.993 13.8862 -22.5718 2.7843 38.922 5.0032 -53.2515 0.0 0.0 0.0 -7.1250 0.0 0.0 -87.4603 86.9352 84.3905 -0.0000 0.0000 0.0000 -7.4874 8.6943 15.6854 -11.7825 -19.4777 -2.0292 -15.7866 4.0367 -19.3968 0.0 0.0 0.0 7.1250 0.0 -0.0 8.0824 10.04 6.6175
-4.5506 17.7547 -2.0398 -16.6096 79.2510 -9.6152 0.0000 0.0000 0.0000 -13.5269 -21.2906 -4.9357 1.1935 6.9323 19.5150 -0.0078 14.4108 -20.3837 2.3641 -9.5865 -27.6480 0.0000 0.0000 0.0000 19.6026 0.8686 -0.7885 0.0000 -0.0000 0.0000 0.9797 -18.7143 -14.9696 -1.5284 -7.8056 22.1252 0.1496 0.2440 2.8809 1.1969 0.3949 -2.4929 1.1245 0.2179 -4.1920 -0.1176 -1.4354 -24.2323 0.9944 -2.1502 26.0601 0.0355 -0.7513 12.7299 0.0000 0.0000 0.0000 3.2173 11.9582 -24.6733 14.4586 -23.3865 3.0078 39.694 4.6167 -53.3934 0.0 0.0 0.0 -7.1250 0.0 0.0 -92.3752 -87.1455 -95.2337 0.0000 0.0000 0.0000 -7.4122 8.5294 16.9295 -12.3116 -20.2703 -2.2091 -15.8332 3.105 -19.3525 0.0 0.0 0.0 7.1250 0.0 -0.0 8.0506 10.0798 6.5844
-4.5441 17.7559 -2.0431 -16.4986 79.2490 -9.5571 0.0000 0.0000 0.0000 -13.6224 -21.4010 -4.7823 1.1931 6.9312 19.5117 -0.0233 14.5685 -20.4348 2.3800 -9.6164 -27.7434 0.0000 0.0000 0.0000 19.5744 0.8537 -0.7330 0.0000 0.0000 -0.0000 1.0053 -18.8370 -14.8191 -1.4073 -7.5035 21.2158 0.1064 0.2792 2.8705 1.1575 0.4374 -2.4716 1.1053 0.2394 -4.1648 -0.1320 -1.4754 -24.1666 0.9563 -2.1883 26.0690 0.0170 -0.7748 12.7202 -0.0000 -0.0000 0.0000 3.2076 11.8354 -25.4352 15.1329 -24.3309 3.2805 40.6514 4.5474 -53.7826 0.0 0.0 0.0 -7.1250 0.0 0.0 -107.1019 -87.1953 -109.8048 -0.0000 -0.0000 0.0000 -7.3009 8.3953 18.139 -12.9001 -21.1406 -2.4171 -15.8852 2.1978 -19.2703 0.0 0.0 0.0 7.1250 0.0 -0.0 8.0137 10.1574 6.5409
-4.5368 17.7573 -2.0457 -16.6258 79.2678 -9.7111 0.0000 0.0000 0.0000 -13.6485 -21.4876 -4.6761 1.1902 6.9230 19.4874 -0.0163 14.5720 -20.5178 2.2907 -9.4469 -27.2036 0.0000 0.0000 0.0000 19.5801 0.8169 -0.7014 0.0000 -0.0000 0.0000 1.0169 -18.8915 -14.7452 -1.3364 -7.3199 20.6667 0.1019 0.2790 2.9083 1.1224 0.4368 -2.5307 1.0714 0.2391 -4.2473 -0.1536 -1.4911 -24.0856 0.9776 -2.2055 26.2156 0.0265 -0.7783 12.7639 0.0000 -0.0000 0.0000 3.1579 11.7996 -26.0841 15.8870 -25.3672 3.5974 40.2297 3.3454 -54.2336 0.0 0.0 0.0 -7.1250 0.0 0.0 -109.3218 -86.8267 -112.3477 0.0000 -0.0000 0.0000 -7.1857 8.362 19.4097 -13.5485 -22.0856 -2.656 -15.9769 1.3347 -19.2614 0.0 0.0 0.0 7.1250 0.0 -0.0 7.9539 10.156 6.4913
